<mxfile host="app.diagrams.net" modified="2021-07-14T06:31:13.871Z" agent="5.0 (Windows NT 10.0; Win64; x64) AppleWebKit/537.36 (KHTML, like Gecko) Chrome/91.0.4472.124 Safari/537.36" etag="kbIAASawm-7pEF1067Iw" version="14.8.6" type="github">
  <diagram id="PDZRkecUsIIB72iDd006" name="Page-1">
    <mxGraphModel dx="1822" dy="706" grid="1" gridSize="14" guides="1" tooltips="1" connect="1" arrows="1" fold="1" page="0" pageScale="1" pageWidth="827" pageHeight="1169" background="#ffffff" math="0" shadow="1">
      <root>
        <mxCell id="0" />
        <mxCell id="1" parent="0" />
        <mxCell id="A_OU8jHODnMW6up81FQS-24" style="edgeStyle=orthogonalEdgeStyle;rounded=0;orthogonalLoop=1;jettySize=auto;html=1;entryX=0.5;entryY=0;entryDx=0;entryDy=0;fontSize=16;" edge="1" parent="1" source="A_OU8jHODnMW6up81FQS-1" target="A_OU8jHODnMW6up81FQS-23">
          <mxGeometry relative="1" as="geometry" />
        </mxCell>
        <mxCell id="A_OU8jHODnMW6up81FQS-1" value="" style="rounded=0;whiteSpace=wrap;html=1;fillColor=#dae8fc;strokeColor=#6c8ebf;" vertex="1" parent="1">
          <mxGeometry x="67" y="7" width="210" height="284" as="geometry" />
        </mxCell>
        <mxCell id="A_OU8jHODnMW6up81FQS-22" style="edgeStyle=orthogonalEdgeStyle;rounded=0;orthogonalLoop=1;jettySize=auto;html=1;exitX=1;exitY=0.5;exitDx=0;exitDy=0;entryX=0;entryY=0.546;entryDx=0;entryDy=0;entryPerimeter=0;fontSize=16;" edge="1" parent="1" source="A_OU8jHODnMW6up81FQS-2" target="A_OU8jHODnMW6up81FQS-1">
          <mxGeometry relative="1" as="geometry" />
        </mxCell>
        <mxCell id="A_OU8jHODnMW6up81FQS-2" value="OrCad DSN" style="rounded=1;whiteSpace=wrap;html=1;fontSize=16;" vertex="1" parent="1">
          <mxGeometry x="-154" y="130" width="160" height="66" as="geometry" />
        </mxCell>
        <mxCell id="A_OU8jHODnMW6up81FQS-6" value="" style="rounded=0;whiteSpace=wrap;html=1;fillColor=#e1d5e7;strokeColor=#9673a6;" vertex="1" parent="1">
          <mxGeometry x="69" y="320" width="210" height="330" as="geometry" />
        </mxCell>
        <mxCell id="A_OU8jHODnMW6up81FQS-7" value="器件1" style="ellipse;whiteSpace=wrap;html=1;fillColor=#1ba1e2;strokeColor=#006EAF;fontColor=#ffffff;" vertex="1" parent="1">
          <mxGeometry x="97.5" y="400" width="155" height="50" as="geometry" />
        </mxCell>
        <mxCell id="A_OU8jHODnMW6up81FQS-25" style="edgeStyle=orthogonalEdgeStyle;rounded=0;orthogonalLoop=1;jettySize=auto;html=1;fontSize=16;" edge="1" parent="1" source="A_OU8jHODnMW6up81FQS-8" target="A_OU8jHODnMW6up81FQS-23">
          <mxGeometry relative="1" as="geometry" />
        </mxCell>
        <mxCell id="A_OU8jHODnMW6up81FQS-8" value="&lt;span&gt;器件1&lt;/span&gt;" style="ellipse;whiteSpace=wrap;html=1;fillColor=#1ba1e2;strokeColor=#006EAF;fontColor=#ffffff;" vertex="1" parent="1">
          <mxGeometry x="97.5" y="460" width="155" height="50" as="geometry" />
        </mxCell>
        <mxCell id="A_OU8jHODnMW6up81FQS-9" value="&lt;span&gt;器件1&lt;/span&gt;" style="ellipse;whiteSpace=wrap;html=1;fillColor=#1ba1e2;strokeColor=#006EAF;fontColor=#ffffff;" vertex="1" parent="1">
          <mxGeometry x="97.5" y="520" width="155" height="50" as="geometry" />
        </mxCell>
        <mxCell id="A_OU8jHODnMW6up81FQS-10" value="&lt;span&gt;器件1&lt;/span&gt;" style="ellipse;whiteSpace=wrap;html=1;fillColor=#1ba1e2;strokeColor=#006EAF;fontColor=#ffffff;" vertex="1" parent="1">
          <mxGeometry x="97.5" y="585" width="155" height="50" as="geometry" />
        </mxCell>
        <mxCell id="A_OU8jHODnMW6up81FQS-12" value="xml" style="rounded=1;whiteSpace=wrap;html=1;fillColor=#ffe6cc;strokeColor=#d79b00;" vertex="1" parent="1">
          <mxGeometry x="116.25" y="240" width="115" height="40" as="geometry" />
        </mxCell>
        <mxCell id="A_OU8jHODnMW6up81FQS-13" value="原理图中间格式，仅仅用来表示连接关系&lt;br&gt;" style="text;html=1;strokeColor=none;fillColor=none;align=center;verticalAlign=middle;whiteSpace=wrap;rounded=0;fontSize=14;" vertex="1" parent="1">
          <mxGeometry x="106.25" y="20" width="143.75" height="60" as="geometry" />
        </mxCell>
        <mxCell id="A_OU8jHODnMW6up81FQS-14" value="器件库，包含器件详细信息，用来规则判断" style="text;html=1;strokeColor=none;fillColor=none;align=center;verticalAlign=middle;whiteSpace=wrap;rounded=0;fontSize=14;" vertex="1" parent="1">
          <mxGeometry x="97.5" y="330" width="152.5" height="50" as="geometry" />
        </mxCell>
        <mxCell id="A_OU8jHODnMW6up81FQS-19" value="iscf" style="rounded=1;whiteSpace=wrap;html=1;fillColor=#ffe6cc;strokeColor=#d79b00;" vertex="1" parent="1">
          <mxGeometry x="116.25" y="90" width="115" height="40" as="geometry" />
        </mxCell>
        <mxCell id="A_OU8jHODnMW6up81FQS-20" value="json" style="rounded=1;whiteSpace=wrap;html=1;fillColor=#ffe6cc;strokeColor=#d79b00;" vertex="1" parent="1">
          <mxGeometry x="116.25" y="140" width="115" height="40" as="geometry" />
        </mxCell>
        <mxCell id="A_OU8jHODnMW6up81FQS-21" value="ymal" style="rounded=1;whiteSpace=wrap;html=1;fillColor=#ffe6cc;strokeColor=#d79b00;" vertex="1" parent="1">
          <mxGeometry x="116.25" y="190" width="115" height="40" as="geometry" />
        </mxCell>
        <mxCell id="A_OU8jHODnMW6up81FQS-27" style="edgeStyle=orthogonalEdgeStyle;rounded=0;orthogonalLoop=1;jettySize=auto;html=1;fontSize=16;" edge="1" parent="1" source="A_OU8jHODnMW6up81FQS-23" target="A_OU8jHODnMW6up81FQS-26">
          <mxGeometry relative="1" as="geometry" />
        </mxCell>
        <mxCell id="A_OU8jHODnMW6up81FQS-23" value="" style="ellipse;whiteSpace=wrap;html=1;aspect=fixed;fontSize=16;" vertex="1" parent="1">
          <mxGeometry x="336" y="224" width="196" height="196" as="geometry" />
        </mxCell>
        <mxCell id="A_OU8jHODnMW6up81FQS-26" value="" style="rounded=0;whiteSpace=wrap;html=1;fontSize=16;" vertex="1" parent="1">
          <mxGeometry x="588" y="105.5" width="294" height="433" as="geometry" />
        </mxCell>
        <mxCell id="A_OU8jHODnMW6up81FQS-29" value="格式映射文件" style="text;html=1;strokeColor=none;fillColor=none;align=center;verticalAlign=middle;whiteSpace=wrap;rounded=0;fontSize=16;" vertex="1" parent="1">
          <mxGeometry x="385" y="240" width="98" height="44" as="geometry" />
        </mxCell>
        <mxCell id="A_OU8jHODnMW6up81FQS-31" value="通用" style="rounded=1;whiteSpace=wrap;html=1;fontSize=16;" vertex="1" parent="1">
          <mxGeometry x="350" y="280" width="112" height="28" as="geometry" />
        </mxCell>
        <mxCell id="A_OU8jHODnMW6up81FQS-32" value="器件1" style="rounded=1;whiteSpace=wrap;html=1;fontSize=16;" vertex="1" parent="1">
          <mxGeometry x="385" y="320" width="112" height="28" as="geometry" />
        </mxCell>
        <mxCell id="A_OU8jHODnMW6up81FQS-33" value="器件2" style="rounded=1;whiteSpace=wrap;html=1;fontSize=16;" vertex="1" parent="1">
          <mxGeometry x="385" y="364" width="112" height="28" as="geometry" />
        </mxCell>
        <mxCell id="A_OU8jHODnMW6up81FQS-34" value="程序中表现格式" style="text;html=1;strokeColor=none;fillColor=none;align=center;verticalAlign=middle;whiteSpace=wrap;rounded=0;fontSize=20;" vertex="1" parent="1">
          <mxGeometry x="661.5" y="105.5" width="147" height="42" as="geometry" />
        </mxCell>
        <mxCell id="A_OU8jHODnMW6up81FQS-35" value="" style="rounded=0;whiteSpace=wrap;html=1;fontSize=20;" vertex="1" parent="1">
          <mxGeometry x="602" y="147.5" width="266" height="160.5" as="geometry" />
        </mxCell>
        <mxCell id="A_OU8jHODnMW6up81FQS-36" value="" style="rounded=0;whiteSpace=wrap;html=1;fontSize=20;" vertex="1" parent="1">
          <mxGeometry x="602" y="330" width="266" height="160.5" as="geometry" />
        </mxCell>
        <mxCell id="A_OU8jHODnMW6up81FQS-37" value="管脚详细信息" style="rounded=0;whiteSpace=wrap;html=1;fontSize=20;" vertex="1" parent="1">
          <mxGeometry x="616" y="167" width="140" height="32" as="geometry" />
        </mxCell>
        <mxCell id="A_OU8jHODnMW6up81FQS-38" value="&lt;span&gt;管脚详细信息&lt;/span&gt;" style="rounded=0;whiteSpace=wrap;html=1;fontSize=20;" vertex="1" parent="1">
          <mxGeometry x="616" y="211" width="140" height="32" as="geometry" />
        </mxCell>
        <mxCell id="A_OU8jHODnMW6up81FQS-39" value="&lt;span&gt;管脚详细信息&lt;/span&gt;" style="rounded=0;whiteSpace=wrap;html=1;fontSize=20;" vertex="1" parent="1">
          <mxGeometry x="616" y="255" width="140" height="32" as="geometry" />
        </mxCell>
        <mxCell id="A_OU8jHODnMW6up81FQS-40" value="&lt;span&gt;管脚详细信息&lt;/span&gt;" style="rounded=0;whiteSpace=wrap;html=1;fontSize=20;" vertex="1" parent="1">
          <mxGeometry x="616" y="350.25" width="140" height="32" as="geometry" />
        </mxCell>
        <mxCell id="A_OU8jHODnMW6up81FQS-41" value="&lt;span&gt;管脚详细信息&lt;/span&gt;" style="rounded=0;whiteSpace=wrap;html=1;fontSize=20;" vertex="1" parent="1">
          <mxGeometry x="616" y="394.25" width="140" height="32" as="geometry" />
        </mxCell>
        <mxCell id="A_OU8jHODnMW6up81FQS-42" value="&lt;span&gt;管脚详细信息&lt;/span&gt;" style="rounded=0;whiteSpace=wrap;html=1;fontSize=20;" vertex="1" parent="1">
          <mxGeometry x="616" y="438.25" width="140" height="32" as="geometry" />
        </mxCell>
      </root>
    </mxGraphModel>
  </diagram>
</mxfile>
